<svg width="40" height="40" viewBox="0 0 40 40" fill="none" xmlns="http://www.w3.org/2000/svg">
<rect y="6" width="40" height="28" rx="4" fill="black"/>
<path fill-rule="evenodd" clip-rule="evenodd" d="M8.21908 16.002C9.29615 16.002 10.29 16.5896 10.154 18.054C9.9892 19.7945 9.06211 20.7575 7.59937 20.7617H6.32123C6.13746 20.7617 6.04846 20.9125 6.00066 21.2217L5.75344 22.8022C5.71635 23.0409 5.59439 23.1586 5.41474 23.1586H4.22559C4.03606 23.1586 3.97013 23.0367 4.01216 22.7641L4.99364 16.4296C5.04226 16.118 5.15845 16.002 5.37024 16.002H8.21661H8.21908ZM6.2825 19.3934H7.25079C7.85649 19.3702 8.25864 18.9483 8.29902 18.1875C8.32374 17.7175 8.00812 17.3811 7.50625 17.3835L6.59482 17.3877L6.2825 19.3934ZM13.3869 22.6737C13.4957 22.5743 13.6061 22.5229 13.5904 22.6455L13.5517 22.9389C13.5319 23.0922 13.5921 23.1735 13.7338 23.1735H14.7903C14.9683 23.1735 15.0548 23.1014 15.0985 22.8246L15.7495 18.7154C15.7825 18.509 15.7322 18.4079 15.5765 18.4079H14.4145C14.3098 18.4079 14.2588 18.4668 14.2316 18.6276L14.1887 18.8803C14.1665 19.0121 14.1063 19.0353 14.0503 18.9027C13.8533 18.4336 13.3506 18.2231 12.6493 18.2397C11.0201 18.2737 9.92163 19.5177 9.80378 21.1123C9.71314 22.3455 10.5916 23.3144 11.7503 23.3144C12.5908 23.3144 12.9666 23.0657 13.3902 22.6762L13.3869 22.6737ZM12.5018 22.0413C11.8005 22.0413 11.3118 21.4786 11.4132 20.789C11.5146 20.0995 12.1705 19.5367 12.8718 19.5367C13.5731 19.5367 14.0618 20.0995 13.9604 20.789C13.8591 21.4786 13.2039 22.0413 12.5018 22.0413ZM17.8171 18.3947H16.7458C16.525 18.3947 16.4351 18.5604 16.5052 18.7643L17.8353 22.6812L16.5307 24.5451C16.4211 24.7009 16.506 24.8427 16.6601 24.8427H17.8641C17.9343 24.8508 18.0053 24.8385 18.0687 24.8072C18.1321 24.7759 18.1852 24.7269 18.2217 24.6661L22.3125 18.7651C22.4386 18.5836 22.3792 18.393 22.1724 18.393H21.0327C20.8374 18.393 20.7591 18.4709 20.647 18.6342L18.9412 21.1206L18.1789 18.6284C18.1344 18.4775 18.0231 18.3947 17.8179 18.3947H17.8171Z" fill="white"/>
<path fill-rule="evenodd" clip-rule="evenodd" d="M26.5684 16.0017C27.6454 16.0017 28.6393 16.5893 28.5033 18.0537C28.3385 19.7942 27.4114 20.7573 25.9486 20.7614H24.6713C24.4876 20.7614 24.3986 20.9122 24.3508 21.2214L24.1035 22.8019C24.0665 23.0406 23.9445 23.1583 23.7648 23.1583H22.5757C22.3862 23.1583 22.3202 23.0364 22.3623 22.7638L23.3454 16.4277C23.394 16.116 23.5102 16 23.722 16H26.5684V16.0017ZM24.6318 19.3931H25.6001C26.2058 19.3699 26.6079 18.948 26.6483 18.1872C26.673 17.7173 26.3574 17.3808 25.8555 17.3833L24.9441 17.3874L24.6318 19.3931ZM31.7362 22.6734C31.8449 22.574 31.9554 22.5226 31.9397 22.6452L31.901 22.9386C31.8812 23.092 31.9413 23.1732 32.0831 23.1732H33.1396C33.3176 23.1732 33.4041 23.1011 33.4478 22.8243L34.0988 18.7151C34.1317 18.5087 34.0815 18.4076 33.9257 18.4076H32.7654C32.6608 18.4076 32.6097 18.4665 32.5825 18.6273L32.5396 18.88C32.5174 19.0118 32.4572 19.035 32.4012 18.9024C32.2042 18.4333 31.7015 18.2228 31.0002 18.2394C29.371 18.2734 28.2725 19.5174 28.1547 21.112C28.0641 22.3452 28.9425 23.3141 30.1012 23.3141C30.9417 23.3141 31.3175 23.0654 31.7411 22.6759L31.7362 22.6734ZM30.8519 22.0411C30.1506 22.0411 29.6619 21.4783 29.7633 20.7888C29.8647 20.0992 30.5206 19.5364 31.2219 19.5364C31.9232 19.5364 32.4119 20.0992 32.3105 20.7888C32.2092 21.4783 31.5532 22.0411 30.8519 22.0411ZM35.7247 23.1798H34.5051C34.4838 23.1808 34.4627 23.177 34.4431 23.1688C34.4235 23.1605 34.4059 23.1481 34.3917 23.1322C34.3774 23.1164 34.3668 23.0976 34.3607 23.0772C34.3545 23.0567 34.3528 23.0352 34.3559 23.0141L35.4272 16.1881C35.4374 16.1416 35.463 16.0998 35.4998 16.0697C35.5366 16.0396 35.5825 16.0229 35.6299 16.0224H36.8496C36.8708 16.0214 36.8919 16.0252 36.9115 16.0334C36.9311 16.0416 36.9487 16.0541 36.9629 16.0699C36.9772 16.0858 36.9878 16.1046 36.994 16.125C37.0001 16.1454 37.0018 16.167 36.9987 16.1881L35.9274 23.0141C35.9175 23.0609 35.8921 23.1031 35.8552 23.1335C35.8184 23.1639 35.7723 23.1808 35.7247 23.1815V23.1798Z" fill="white"/>
</svg>
