<svg width="40" height="40" viewBox="0 0 40 40" fill="none" xmlns="http://www.w3.org/2000/svg">
<rect y="6" width="40" height="28" rx="4" fill="black"/>
<path d="M15.6344 16.1348L11.9616 23.8761H9.54296L7.76417 17.7527C7.7498 17.6074 7.69272 17.4679 7.59851 17.3477C7.50429 17.2276 7.37618 17.131 7.22669 17.0674C6.5173 16.7691 5.76974 16.5465 5 16.4045V16.1798H8.83912C9.0932 16.1824 9.33801 16.264 9.53011 16.41C9.72221 16.556 9.84918 16.7571 9.88848 16.9775L10.8355 21.4717L13.1901 16.2022L15.6344 16.1348ZM25.0146 21.3481C25.0146 19.3145 21.8154 19.2021 21.841 18.2808C21.841 18.0111 22.1481 17.7078 22.8007 17.6404C23.5682 17.5721 24.3424 17.6887 25.0402 17.9774L25.4369 16.3371C24.7561 16.1184 24.0375 16.0044 23.3126 16C21.0731 16 19.4735 17.0449 19.4735 18.5617C19.4735 19.6852 20.5996 20.2919 21.457 20.6627C22.3144 21.0335 22.6344 21.2919 22.6344 21.629C22.6344 22.1458 21.9305 22.3705 21.2779 22.3817C20.467 22.4005 19.6644 22.234 18.9488 21.8986L18.5009 23.5952C19.3173 23.8707 20.1857 24.008 21.0603 23.9996C23.4406 23.9996 24.989 22.966 25.0018 21.3481H25.0146ZM30.9141 23.8761H33L31.1828 16.1348H29.2633C29.0546 16.1346 28.8507 16.189 28.6774 16.2911C28.5042 16.3932 28.3695 16.5383 28.2907 16.7078L24.8995 23.8761H27.2797L27.7404 22.7525H30.6453L30.9141 23.8761ZM28.3547 21.1346L29.5576 18.2359L30.2742 21.1234L28.3547 21.1346ZM18.8336 16.1348L16.9653 23.8761H14.7386L16.6069 16.1348H18.8336Z" fill="white"/>
</svg>
